<svg viewBox="0 0 512 338" fill="none" xmlns="http://www.w3.org/2000/svg">
<path d="M384.815 337.529C363.074 337.529 343.779 331.822 326.93 320.408C310.081 308.994 296.764 293.503 286.981 273.936C277.197 254.369 272.306 232.628 272.306 208.713C272.306 169.58 285.079 131.261 310.624 93.758C336.713 55.7113 373.401 24.4586 420.688 0L512 48.9172C481.019 64.1359 454.658 81.8005 432.917 101.911C411.72 122.021 397.316 145.665 389.707 172.841C415.253 175.015 435.907 182.896 451.669 196.484C467.975 209.529 476.127 227.737 476.127 251.108C476.127 274.48 467.703 294.862 450.853 312.255C434.548 329.104 412.535 337.529 384.815 337.529ZM112.51 337.529C90.7686 337.529 71.4735 331.822 54.6242 320.408C37.7749 308.994 24.4586 293.503 14.6752 273.936C4.89172 254.369 0 232.628 0 208.713C0 169.58 12.7728 131.261 38.3185 93.758C64.4076 55.7113 101.096 24.4586 148.382 0L239.694 48.9172C208.713 64.1359 182.352 81.8005 160.611 101.911C139.414 122.021 125.011 145.665 117.401 172.841C142.947 175.015 163.601 182.896 179.363 196.484C195.669 209.529 203.822 227.737 203.822 251.108C203.822 274.48 195.397 294.862 178.548 312.255C162.242 329.104 140.229 337.529 112.51 337.529Z" fill="#E4E2E2"/>
</svg>
