<svg width="1366" height="246" viewBox="0 0 1366 246" fill="none" xmlns="http://www.w3.org/2000/svg">
<path d="M-12.2771 627.802V586.184H-97.3663V343.564H206.65V301.947H-97.3663V49.5866H218.173L219.059 146.103H260.717V7.96928H-223.227V48.7011H-141.684V586.184H-225V627.802H-12.2771Z" fill="#686366"/>
<path d="M630.012 627.802C847.166 627.802 947.323 475.5 945.551 310.802C942.005 150.531 840.962 7.96928 630.012 7.96928H343.722V48.7011H425.266V586.184H341.063V627.802H630.012ZM469.583 586.184V49.5866H630.012C809.94 49.5866 898.574 176.21 900.347 310.802C902.12 450.707 814.372 586.184 630.012 586.184H469.583Z" fill="#686366"/>
<path d="M1364.87 0C1152.15 0 1045.78 155.844 1046.67 320.542C1046.67 488.782 1156.58 634 1364.87 634C1445.53 634 1528.84 603.894 1590 541.911L1558.09 512.69C1505.8 564.048 1434.89 590.612 1364.87 590.612C1194.69 590.612 1091.87 473.729 1091.87 320.542C1090.99 171.782 1183.17 42.5028 1364.87 42.5028C1421.59 42.5028 1478.32 58.4414 1526.18 93.8603L1527.07 200.117H1566.96C1567.84 157.615 1568.73 115.997 1568.73 74.3799C1510.23 23.9078 1437.55 0 1364.87 0Z" fill="#686366"/>
</svg>
