<svg width="56" height="56" viewBox="0 0 56 56" fill="none" xmlns="http://www.w3.org/2000/svg">
<rect width="56" height="56" rx="28" fill="#FAA635"/>
<path d="M34.667 38.6666H41.3337V36C41.3336 35.1687 41.0745 34.3581 40.5925 33.6808C40.1105 33.0036 39.4294 32.4933 38.644 32.221C37.8586 31.9487 37.0078 31.9278 36.21 32.1613C35.4122 32.3949 34.707 32.8711 34.1923 33.524M34.667 38.6666H21.3337M34.667 38.6666V36C34.667 35.1253 34.499 34.2893 34.1923 33.524M34.1923 33.524C33.6972 32.2866 32.8427 31.2259 31.739 30.4788C30.6353 29.7317 29.3331 29.3324 28.0003 29.3324C26.6675 29.3324 25.3653 29.7317 24.2617 30.4788C23.158 31.2259 22.3035 32.2866 21.8083 33.524M21.3337 38.6666H14.667V36C14.6671 35.1687 14.9261 34.3581 15.4081 33.6808C15.8902 33.0036 16.5712 32.4933 17.3567 32.221C18.1421 31.9487 18.9928 31.9278 19.7906 32.1613C20.5885 32.3949 21.2937 32.8711 21.8083 33.524M21.3337 38.6666V36C21.3337 35.1253 21.5017 34.2893 21.8083 33.524M32.0003 21.3333C32.0003 22.3942 31.5789 23.4116 30.8288 24.1617C30.0786 24.9119 29.0612 25.3333 28.0003 25.3333C26.9395 25.3333 25.922 24.9119 25.1719 24.1617C24.4218 23.4116 24.0003 22.3942 24.0003 21.3333C24.0003 20.2724 24.4218 19.255 25.1719 18.5049C25.922 17.7547 26.9395 17.3333 28.0003 17.3333C29.0612 17.3333 30.0786 17.7547 30.8288 18.5049C31.5789 19.255 32.0003 20.2724 32.0003 21.3333ZM21.3337 25.3333C21.3337 26.0406 21.0527 26.7188 20.5526 27.2189C20.0525 27.719 19.3742 28 18.667 28C17.9597 28 17.2815 27.719 16.7814 27.2189C16.2813 26.7188 16.0003 26.0406 16.0003 25.3333C16.0003 24.6261 16.2813 23.9478 16.7814 23.4477C17.2815 22.9476 17.9597 22.6666 18.667 22.6666C19.3742 22.6666 20.0525 22.9476 20.5526 23.4477C21.0527 23.9478 21.3337 24.6261 21.3337 25.3333Z" stroke="white" stroke-width="2" stroke-linecap="round" stroke-linejoin="round"/>
<path d="M39.2193 27.219C39.7194 26.7189 40.0003 26.0406 40.0003 25.3334C40.0003 24.6261 39.7194 23.9478 39.2193 23.4477C38.7192 22.9476 38.0409 22.6667 37.3337 22.6667C36.6264 22.6667 35.9481 22.9476 35.448 23.4477C34.9479 23.9478 34.667 24.6261 34.667 25.3334C34.667 26.0406 34.9479 26.7189 35.448 27.219C35.9481 27.7191 36.6264 28 37.3337 28C38.0409 28 38.7192 27.7191 39.2193 27.219Z" stroke="white" stroke-width="2" stroke-linecap="round" stroke-linejoin="round"/>
</svg>
