<svg viewBox="0 0 291 48" fill="none" xmlns="http://www.w3.org/2000/svg">
<path d="M62.3224 34.299H68.7224C75.2777 34.299 79.1923 30.4466 79.1923 24.0155C79.1923 17.5845 75.2777 13.732 68.7224 13.732H62.3224V34.299ZM68.7224 48H48.5903V0H68.7224C82.734 0 92.9243 10.0971 92.9243 24.0155C92.9243 37.9029 82.734 48 68.7224 48Z" fill="#005D83"/>
<path d="M43.9612 0H0V13.4835H43.9612V0Z" fill="#2A9FBC"/>
<path d="M29.5767 17.2427H0V30.7262H29.5767V17.2427Z" fill="#2A9FBC"/>
<path d="M14.7883 34.5165H0V48H14.7883V34.5165Z" fill="#2A9FBC"/>
<path d="M121.538 47.9689C108.303 47.9689 97.5532 37.2194 97.5532 23.9845C97.5532 10.7495 108.303 0 121.538 0C127.876 0 133.841 2.45437 138.377 6.89709L128.745 16.6835C126.819 14.7884 124.241 13.732 121.538 13.732C115.883 13.732 111.285 18.3301 111.285 23.9845C111.285 29.6388 115.883 34.2369 121.538 34.2369C124.272 34.2369 126.85 33.1806 128.808 31.2233L138.501 40.9165C133.965 45.4835 127.938 47.9689 121.538 47.9689Z" fill="#005D83"/>
<path d="M170.675 23.5437C169.981 24.2738 169.064 24.5932 168.207 24.5932C166.507 24.5779 165.398 23.3764 165.398 21.597C165.398 19.9087 166.418 18.6008 168.236 18.6008C168.576 18.6008 168.931 18.6312 169.301 18.7681L169.375 20.4715H171.858V17.3992C170.912 16.4411 169.552 16 168.236 16C164.349 16 162.472 18.8593 162.501 21.597C162.516 25.1711 164.881 27.2091 168.207 27.1939C169.848 27.1787 171.222 26.692 172.39 25.5209L170.675 23.5437Z" fill="#5C585B"/>
<path d="M184.365 21.597C184.365 18.0684 182.03 16.0304 178.63 16.0304C175.245 16.0304 172.88 18.1141 172.88 21.597C172.88 25.1711 175.245 27.1787 178.63 27.1787C182.03 27.1787 184.365 25.1711 184.365 21.597ZM181.438 21.597C181.438 23.3764 180.345 24.6084 178.63 24.6084C176.975 24.6084 175.807 23.3764 175.807 21.597C175.807 19.8479 176.96 18.6008 178.63 18.6008C180.345 18.6008 181.438 19.7567 181.438 21.597Z" fill="#5C585B"/>
<path d="M186.454 24.5475H185.212V26.9202C187.001 26.9202 188.76 26.9202 190.519 26.9202V24.7909L189.366 24.6996V23.4829H190.504L191.79 25.384V26.9202C193.179 26.9202 194.569 26.9202 195.958 26.9202V24.5475H194.613L193.519 23.057C195.116 22.2814 195.529 21.2015 195.529 19.9392C195.529 18.0228 194.155 16.2738 191.509 16.2738H185.212V18.6312H186.454V24.5475ZM191.494 18.6768C192.278 18.6768 192.632 19.27 192.632 19.9544C192.632 20.6388 192.248 21.2319 191.524 21.2319H189.366V18.6768H191.494Z" fill="#5C585B"/>
<path d="M196.991 16.2738V18.6616H198.218V24.5475H196.991V26.9202C198.779 26.9202 200.701 26.9202 202.475 26.9202V24.6236L201.159 24.5475C201.159 24.1977 201.159 23.8327 201.159 23.4677H203.036C205.135 23.4525 207.175 22.3726 207.175 19.8783C207.175 17.3688 205.446 16.2738 203.036 16.2738H196.991ZM201.159 18.8745H203.036C203.702 18.8745 204.248 19.2091 204.248 19.9087C204.248 20.6692 203.702 21.019 203.036 21.019H201.159V18.8745Z" fill="#5C585B"/>
<path d="M219.297 21.597C219.297 18.0684 216.962 16.0304 213.562 16.0304C210.177 16.0304 207.812 18.1141 207.812 21.597C207.812 25.1711 210.177 27.1787 213.562 27.1787C216.962 27.1787 219.297 25.1711 219.297 21.597ZM216.37 21.597C216.37 23.3764 215.276 24.6084 213.562 24.6084C211.906 24.6084 210.739 23.3764 210.739 21.597C210.739 19.8479 211.892 18.6008 213.562 18.6008C215.276 18.6008 216.37 19.7567 216.37 21.597Z" fill="#5C585B"/>
<path d="M221.386 24.5475H220.144V26.9202C221.933 26.9202 223.692 26.9202 225.45 26.9202V24.7909L224.298 24.6996V23.4829H225.436L226.722 25.384V26.9202C228.111 26.9202 229.5 26.9202 230.89 26.9202V24.5475H229.545L228.451 23.057C230.047 22.2814 230.461 21.2015 230.461 19.9392C230.461 18.0228 229.087 16.2738 226.441 16.2738H220.144V18.6312H221.386V24.5475ZM226.426 18.6768C227.209 18.6768 227.564 19.27 227.564 19.9544C227.564 20.6388 227.18 21.2319 226.456 21.2319H224.298V18.6768H226.426Z" fill="#5C585B"/>
<path d="M244.28 26.9202V24.5475H243.142L239.55 16.2738C237.806 16.2738 235.81 16.2738 234.081 16.2738V18.6312H235.248L232.677 24.5475H231.524V26.9202H236.712V24.7757L235.736 24.6996L236.061 23.7567H239.727L240.052 24.6844L239.136 24.7757V26.9202H244.28ZM236.934 21.3992L237.88 18.8289L238.855 21.3992H236.934Z" fill="#5C585B"/>
<path d="M243.565 16.2738V20.3954H246.033L246.122 18.8289H247.068V24.5475H245.841V26.9202H251.236V24.5475H250.024V18.8289H250.955L251.044 20.3954H253.513V16.2738H243.565Z" fill="#5C585B"/>
<path d="M261.535 24.3802H258.579V22.7681H261.062V20.4259H258.579V18.7833H261.343L261.402 19.8479H263.619V16.2738C260.589 16.2738 257.574 16.2738 254.544 16.2738V18.6312H255.682V24.5475H254.544V26.9202C257.633 26.9202 260.737 26.9202 263.811 26.9202V23.3156H261.594L261.535 24.3802Z" fill="#5C585B"/>
<path d="M163.965 39.5741V45.4601H162.856V47.8327H172.094V43.5894H169.537L169.419 45.2776H166.906V39.5741H168.133V37.1863C166.344 37.1863 164.541 37.1863 162.782 37.1863V39.5741H163.965Z" fill="#5C585B"/>
<path d="M180.095 45.2928H177.139V43.6806H179.622V41.3384H177.139V39.6958H179.903L179.962 40.7605H182.179V37.1863C179.149 37.1863 176.133 37.1863 173.103 37.1863V39.5437H174.241V45.4601H173.103V47.8327C176.193 47.8327 179.297 47.8327 182.371 47.8327V44.2281H180.154L180.095 45.2928Z" fill="#5C585B"/>
<path d="M195.895 47.8327V45.4601H194.757L191.165 37.1863C189.421 37.1863 187.425 37.1863 185.696 37.1863V39.5437H186.864L184.292 45.4601H183.139V47.8327H188.327V45.6882L187.351 45.6122L187.677 44.6692H191.342L191.667 45.597L190.751 45.6882V47.8327H195.895ZM188.549 42.3118L189.495 39.7414L190.47 42.3118H188.549Z" fill="#5C585B"/>
<path d="M197.814 45.4601H196.572V47.8327C198.361 47.8327 200.12 47.8327 201.879 47.8327V45.7034L200.726 45.6122V44.3954H201.864L203.15 46.2966V47.8327C204.539 47.8327 205.929 47.8327 207.318 47.8327V45.4601H205.973L204.879 43.9696C206.476 43.1939 206.889 42.1141 206.889 40.8517C206.889 38.9354 205.515 37.1863 202.869 37.1863H196.572V39.5437H197.814V45.4601ZM202.854 39.5894C203.638 39.5894 203.992 40.1825 203.992 40.8669C203.992 41.5513 203.608 42.1445 202.884 42.1445H200.726V39.5894H202.854Z" fill="#5C585B"/>
<path d="M212.061 37.1863H208.351V39.5741H209.578V45.4601H208.351V47.8327C210.08 47.8327 211.81 47.8327 213.554 47.8327V45.4601H212.549V44.4106L212.504 42.0989L216.806 47.8327H219.304V39.5741H220.501V37.1863C218.801 37.1863 217.057 37.1863 215.342 37.1863V39.5741H216.348V40.8365C216.377 41.2471 216.377 41.7338 216.436 43.0114L212.061 37.1863Z" fill="#5C585B"/>
<path d="M227.338 44.5627C227.338 43.711 228.195 43.5437 228.86 43.5437H230.442V44.2586C230.442 45.1103 229.629 45.5817 228.772 45.5817C228.033 45.5817 227.338 45.2928 227.338 44.5627ZM233.117 40.2586C233.117 37.8099 231.196 36.9886 229.112 36.9886C227.279 36.9886 224.81 37.7186 224.81 40.289C224.81 40.8973 225.091 41.962 225.948 42.403C225.032 42.9354 224.456 43.924 224.456 44.73C224.456 47.3004 226.436 48 228.417 48C229.836 48 230.811 47.5589 231.595 46.7072C232.083 47.9696 233.25 48.0304 234.181 47.8479V45.2167C233.472 45.3384 233.073 44.8973 233.073 44.3194V43.4981H234.122V41.3688H229.023C228.461 41.3688 227.781 41.019 227.781 40.2281C227.781 38.9202 230.427 38.8289 230.457 40.2586H233.117Z" fill="#5C585B"/>
<path d="M239.544 39.5437V45.4601H238.421V47.8327H243.978C247.689 47.8327 249.418 45.3536 249.418 42.403C249.418 39.4829 247.629 37.1863 243.978 37.1863H238.421V39.5437H239.544ZM242.456 39.6806H243.978C245.767 39.6806 246.521 40.9278 246.521 42.3726C246.521 43.8327 245.856 45.2928 243.978 45.2928H242.456V39.6806Z" fill="#5C585B"/>
<path d="M251.525 45.4601H250.284V47.8327C252.072 47.8327 253.831 47.8327 255.59 47.8327V45.7034L254.437 45.6122V44.3954H255.575L256.861 46.2966V47.8327C258.251 47.8327 259.64 47.8327 261.029 47.8327V45.4601H259.684L258.591 43.9696C260.187 43.1939 260.601 42.1141 260.601 40.8517C260.601 38.9354 259.226 37.1863 256.58 37.1863H250.284V39.5437H251.525V45.4601ZM256.566 39.5894C257.349 39.5894 257.704 40.1825 257.704 40.8669C257.704 41.5513 257.319 42.1445 256.595 42.1445H254.437V39.5894H256.566Z" fill="#5C585B"/>
<path d="M263.319 39.5437C263.319 41.5209 263.319 43.4677 263.319 45.4601H262.107V47.8327C263.895 47.8327 265.684 47.8327 267.487 47.8327V45.4601H266.26C266.26 43.4677 266.26 41.5209 266.26 39.5437H267.487V37.1863C265.684 37.1863 263.895 37.1863 262.107 37.1863V39.5437H263.319Z" fill="#5C585B"/>
<path d="M273.55 37.1863H268.243V39.5437H269.322L272.914 47.8783H275.737L279.329 39.5437H280.408V37.1863H275.117V39.5437H276.122L274.318 44.2738L272.545 39.5437H273.55V37.1863Z" fill="#5C585B"/>
<path d="M288.225 45.2928H285.268V43.6806H287.752V41.3384H285.268V39.6958H288.033L288.092 40.7605H290.309V37.1863C287.279 37.1863 284.263 37.1863 281.233 37.1863V39.5437H282.371V45.4601H281.233V47.8327C284.322 47.8327 287.427 47.8327 290.501 47.8327V44.2281H288.284L288.225 45.2928Z" fill="#5C585B"/>
</svg>
