<svg viewBox="0 0 512 512" fill="none" xmlns="http://www.w3.org/2000/svg">
<path fill-rule="evenodd" clip-rule="evenodd" d="M109.901 109.901C114.701 105.102 121.212 102.405 128 102.405C134.788 102.405 141.298 105.102 146.099 109.901L256 219.802L365.901 109.901C368.262 107.456 371.087 105.505 374.21 104.164C377.334 102.822 380.693 102.116 384.092 102.086C387.491 102.057 390.862 102.705 394.008 103.992C397.154 105.279 400.013 107.18 402.416 109.583C404.82 111.987 406.721 114.845 408.008 117.992C409.295 121.138 409.943 124.509 409.913 127.908C409.884 131.307 409.178 134.666 407.836 137.79C406.494 140.913 404.544 143.738 402.099 146.099L292.198 256L402.099 365.901C406.762 370.729 409.343 377.196 409.284 383.908C409.226 390.62 406.534 397.041 401.787 401.787C397.041 406.534 390.62 409.226 383.908 409.284C377.195 409.343 370.729 406.762 365.901 402.099L256 292.198L146.099 402.099C141.271 406.762 134.804 409.343 128.092 409.284C121.38 409.226 114.959 406.534 110.212 401.787C105.466 397.041 102.774 390.62 102.715 383.908C102.657 377.196 105.237 370.729 109.901 365.901L219.801 256L109.901 146.099C105.101 141.298 102.405 134.788 102.405 128C102.405 121.212 105.101 114.702 109.901 109.901Z" fill="#5C585B"/>
</svg>
